<svg width="84" height="68" viewBox="0 0 84 68" fill="none" xmlns="http://www.w3.org/2000/svg">
<path d="M0.75 49V17.875C0.8125 14.375 2.25 10.9375 5.0625 7.5625C8.8125 3.125 13.5938 0.90625 19.4062 0.90625V5.6875C15.0312 5.75 11.4375 7.5625 8.625 11.125C6.6875 13.625 5.71875 16.375 5.71875 19.375V49C5.71875 54.25 8.34375 58.25 13.5938 61C15.8438 62.125 17.7812 62.6875 19.4062 62.6875V67.4688C15.5312 67.4688 11.7812 66.1562 8.15625 63.5312C3.28125 59.9062 0.8125 55.0625 0.75 49ZM23.7188 67.4688V62.6875C26.2188 62.6875 28.9062 61.375 31.7812 58.75C34.8438 55.8125 36.4062 52.625 36.4688 49.1875V38.5938H23.7188V33.9062H41.5312V50.5C41.5312 54.3125 39.5938 58.0938 35.7188 61.8438C31.7812 65.5312 27.7812 67.4062 23.7188 67.4688ZM23.7188 5.6875V0.90625C28.5938 0.84375 32.9062 2.875 36.6562 7C39.9062 10.5625 41.5312 14.4375 41.5312 18.625L36.6562 20.4062C36.6562 19.4688 36.625 18.875 36.5625 18.625C36.125 13.375 33.5312 9.53125 28.7812 7.09375C26.9062 6.15625 25.2188 5.6875 23.7188 5.6875ZM48 67L60.75 11.0312H62.3438L63.8438 18.1562L52.9688 67H48ZM59.9062 54.9062L60.9375 50.125H75.2812L64.5938 1.46875H69.5625L83.9062 67H78.9375L76.4062 54.9062H59.9062Z" fill="#806219"/>
</svg>
